# xmcd
#
# Track frame offsets:
#	150
#	13321
#	29576
#	44189
#	56612
#	69915
#	84262
#	98854
#	112531
#	126167
#	141482
#	156289
#	170514
#	187049
#	202657
#	219527
#	235807
#	252912
#	271763
#	283639
#	299479
#	315946
#	333996
#
# Disc length: 4739 seconds
#
# Revision: 1
# Processed by: cddbd v1.5.1PL0 Copyright (c) Steve Scherf et al.
# Submitted via: audiograbber 1.83.01
#
DISCID=51128117
DTITLE=Various Artist - Jerri's Kids
DYEAR=1900
DGENRE=Country
TTITLE0=B. J. Thomas - Hooked On A Feeling
TTITLE1=Ronnie Milsap - Wouldn't Have Missed It
TTITLE2=Eddie Rabbit - I Love A Rainy Night
TTITLE3=Freddie Fender - Wasted Days and Wasted Nights
TTITLE4=Charlie Rich - Behind Closed Doors
TTITLE5=Anne Murray - Could I Have This Dance
TTITLE6=Elvis - Kentucky Rain
TTITLE7=Kenny Rogers - Ruby
TTITLE8=Glenn Campbell - Gentle On My Mind
TTITLE9=Conway Twitty - I'd Love To Lay You Down
TTITLE10=Bellamy Brothers - Let Your Love Flow
TTITLE11=Mac Davis - Don't Get Hooked On Me
TTITLE12=Alabama - Mountain Music
TTITLE13=B. J. Thomas - Somebody Done Somebody Wrong Song
TTITLE14=Jonney Lee - Lookin' For Love
TTITLE15=Eddie Rabbit - Step By Step
TTITLE16=Ronnie Milsap - Smokey Mountain Rain
TTITLE17=Kenny Rogers and Dolly Parton - Islands In The Stream
TTITLE18=Freddie Fender - Before The Next Tear Drop Falls
TTITLE19=Andy Kim - Rock Me Gently
TTITLE20=Lou Rawls - You're Gonna Miss My Lovin' (Ode To Hippos)
TTITLE21=Dobbie Gray - Drift Away
TTITLE22=Elvis - Polk Salad Annie
EXTD=
EXTT0=
EXTT1=
EXTT2=
EXTT3=
EXTT4=
EXTT5=
EXTT6=
EXTT7=
EXTT8=
EXTT9=
EXTT10=
EXTT11=
EXTT12=
EXTT13=
EXTT14=
EXTT15=
EXTT16=
EXTT17=
EXTT18=
EXTT19=
EXTT20=
EXTT21=
EXTT22=
PLAYORDER=
